<svg width="89.1" height="89.5" xmlns="http://www.w3.org/2000/svg">
 <style type="text/css">.st0{fill:#FFFFFF;stroke:#FFFFFF;stroke-width:5;stroke-miterlimit:10;}
	.st1{fill:#326DE6;}
	.st2{fill:#FFFFFF;}</style>

 <title>Kubernetes_Logo_Hrz_lockup_REV</title>
 <g>
  <title>background</title>
  <rect fill="none" id="canvas_background" height="91.5" width="91.1" y="-1" x="-1"/>
 </g>
 <g>
  <title>Layer 1</title>
  <g id="Layer_2">
   <g id="Layer_1-2">
    <path id="svg_1" d="m80.3,20.3c-0.5,-1.6 -1.7,-2.9 -3.2,-3.7l-30.5,-14.6c-0.8,-0.4 -1.7,-0.5 -2.5,-0.5c-0.8,0 -1.7,0 -2.5,0.2l-30.5,14.7c-1.5,0.7 -2.6,2 -3,3.7l-7.5,32.9c-0.3,1.7 0.1,3.4 1.1,4.8l21.1,26.1c1.2,1.2 2.9,2 4.6,2.1l33.6,0c1.8,0.2 3.5,-0.6 4.6,-2.1l21.1,-26.1c1,-1.4 1.4,-3.1 1.2,-4.8l-7.6,-32.7z" class="st0"/>
    <path id="svg_2" d="m80.3,20.3c-0.5,-1.6 -1.7,-2.9 -3.2,-3.7l-30.5,-14.6c-0.8,-0.4 -1.7,-0.5 -2.5,-0.5c-0.8,0 -1.7,0 -2.5,0.2l-30.5,14.7c-1.5,0.7 -2.6,2 -3,3.7l-7.5,32.9c-0.3,1.7 0.1,3.4 1.1,4.8l21.1,26.1c1.2,1.2 2.9,2 4.6,2.1l33.6,0c1.8,0.2 3.5,-0.6 4.6,-2.1l21.1,-26.1c1,-1.4 1.4,-3.1 1.2,-4.8l-7.6,-32.7z" class="st1"/>
    <path id="svg_3" d="m75.6,51.7l0,0c-0.1,0 -0.2,0 -0.2,-0.1s-0.2,-0.1 -0.4,-0.1c-0.4,-0.1 -0.8,-0.1 -1.2,-0.1c-0.2,0 -0.4,0 -0.6,-0.1l-0.1,0c-1.1,-0.1 -2.3,-0.3 -3.4,-0.6c-0.3,-0.1 -0.6,-0.4 -0.7,-0.7c0.1,0 0,0 0,0l0,0l-0.8,-0.2c0.4,-2.9 0.2,-5.9 -0.4,-8.8c-0.7,-2.9 -1.9,-5.7 -3.5,-8.2l0.6,-0.6l0,0l0,-0.1c0,-0.3 0.1,-0.7 0.3,-0.9c0.9,-0.8 1.8,-1.4 2.8,-2l0,0c0.2,-0.1 0.4,-0.2 0.6,-0.3c0.4,-0.2 0.7,-0.4 1.1,-0.6c0.1,-0.1 0.2,-0.1 0.3,-0.2s0,-0.1 0,-0.2l0,0c0.9,-0.7 1.1,-1.9 0.4,-2.8c-0.3,-0.4 -0.9,-0.7 -1.4,-0.7c-0.5,0 -1,0.2 -1.4,0.5l0,0l-0.1,0.1c-0.1,0.1 -0.2,0.2 -0.3,0.2c-0.3,0.3 -0.6,0.6 -0.8,0.9c-0.1,0.2 -0.3,0.3 -0.4,0.4l0,0c-0.7,0.8 -1.6,1.6 -2.5,2.2c-0.2,0.1 -0.4,0.2 -0.6,0.2c-0.1,0 -0.3,0 -0.4,-0.1l-0.1,0l-0.8,0.5c-0.8,-0.8 -1.7,-1.6 -2.5,-2.4c-3.7,-2.9 -8.3,-4.7 -13,-5.2l-0.1,-0.8l0,0l0,0.1c-0.3,-0.2 -0.4,-0.5 -0.5,-0.8c0,-1.1 0,-2.2 0.2,-3.4l0,-0.1c0,-0.2 0.1,-0.4 0.1,-0.6c0.1,-0.4 0.1,-0.8 0.2,-1.2l0,-0.6l0,0c0.1,-1 -0.7,-2 -1.7,-2.1c-0.6,-0.1 -1.2,0.2 -1.7,0.7c-0.4,0.4 -0.6,0.9 -0.6,1.4l0,0l0,0.5c0,0.4 0.1,0.8 0.2,1.2c0.1,0.2 0.1,0.4 0.1,0.6l0,0.1c0.2,1.1 0.2,2.2 0.2,3.4c-0.1,0.3 -0.2,0.6 -0.5,0.8l0,0.2l0,0l-0.1,0.8c-1.1,0.1 -2.2,0.3 -3.4,0.5c-4.7,1 -9,3.5 -12.3,7l-0.6,-0.4l-0.1,0c-0.1,0 -0.2,0.1 -0.4,0.1c-0.2,0 -0.4,-0.1 -0.6,-0.2c-0.9,-0.7 -1.8,-1.5 -2.5,-2.3l0,0c-0.1,-0.2 -0.3,-0.3 -0.4,-0.4c-0.3,-0.3 -0.5,-0.6 -0.8,-0.9c-0.1,-0.1 -0.2,-0.1 -0.3,-0.2s-0.1,-0.1 -0.1,-0.1l0,0c-0.4,-0.3 -0.9,-0.5 -1.4,-0.5c-0.6,0 -1.1,0.2 -1.4,0.7c-0.6,0.9 -0.4,2.1 0.4,2.8l0,0c0.1,0 0.1,0.1 0.1,0.1s0.2,0.2 0.3,0.2c0.3,0.2 0.7,0.4 1.1,0.6c0.2,0.1 0.4,0.2 0.6,0.3l0,0c1,0.6 2,1.2 2.8,2c0.2,0.2 0.4,0.6 0.3,0.9l0,-0.1l0,0l0.6,0.6c-0.1,0.2 -0.2,0.3 -0.3,0.5c-3.1,4.9 -4.4,10.7 -3.5,16.4l-0.8,0.2l0,0c0,0.1 -0.1,0.1 -0.1,0.1c-0.1,0.3 -0.4,0.5 -0.7,0.7c-1.1,0.3 -2.2,0.5 -3.4,0.6l0,0c-0.2,0 -0.4,0 -0.6,0.1c-0.4,0 -0.8,0.1 -1.2,0.1c-0.1,0 -0.2,0.1 -0.4,0.1c-0.1,0 -0.1,0 -0.2,0.1l0,0c-1.1,0.2 -1.8,1.2 -1.6,2.3c0,0 0,0 0,0c0.2,0.9 1.1,1.5 2,1.4c0.2,0 0.3,0 0.5,-0.1l0,0c0.1,0 0.1,0 0.1,-0.1s0.3,0 0.4,0c0.4,-0.1 0.8,-0.3 1.1,-0.4c0.2,-0.1 0.4,-0.2 0.6,-0.2l0.1,0c1.1,-0.4 2.1,-0.7 3.3,-0.9l0.1,0c0.3,0 0.6,0.1 0.8,0.3c0.1,0 0.1,0.1 0.1,0.1l0,0l0.9,-0.1c1.5,4.6 4.3,8.7 8.2,11.7c0.9,0.7 1.7,1.3 2.7,1.8l-0.5,0.7l0,0c0,0.1 0.1,0.1 0.1,0.1c0.2,0.3 0.2,0.7 0.1,1c-0.4,1 -1,2 -1.6,2.9l0,0.1c-0.1,0.2 -0.2,0.3 -0.4,0.5s-0.4,0.6 -0.7,1c-0.1,0.1 -0.1,0.2 -0.2,0.3c0,0 0,0.1 -0.1,0.1l0,0c-0.5,1 -0.1,2.2 0.8,2.7c0.2,0.1 0.5,0.2 0.7,0.2c0.8,0 1.5,-0.5 1.9,-1.2l0,0c0,0 0,-0.1 0.1,-0.1c0,-0.1 0.1,-0.2 0.2,-0.3c0.1,-0.4 0.3,-0.7 0.4,-1.1l0.2,-0.6l0,0c0.3,-1.1 0.8,-2.1 1.3,-3.1c0.2,-0.3 0.5,-0.5 0.8,-0.6c0.1,0 0.1,0 0.1,-0.1l0,0l0.4,-0.8c2.8,1.1 5.7,1.6 8.7,1.6c1.8,0 3.6,-0.2 5.4,-0.7c1.1,-0.2 2.2,-0.6 3.2,-0.9l0.4,0.7l0,0c0.1,0 0.1,0 0.1,0.1c0.3,0.1 0.6,0.3 0.8,0.6c0.5,1 1,2 1.3,3.1l0,0.1l0.2,0.6c0.1,0.4 0.2,0.8 0.4,1.1c0.1,0.1 0.1,0.2 0.2,0.3c0,0 0,0.1 0.1,0.1l0,0c0.4,0.7 1.1,1.2 1.9,1.2c0.3,0 0.5,-0.1 0.8,-0.2c0.4,-0.2 0.8,-0.6 0.9,-1.1c0.1,-0.5 0.1,-1 -0.1,-1.5l0,0c0,-0.1 -0.1,-0.1 -0.1,-0.1c0,-0.1 -0.1,-0.2 -0.2,-0.3c-0.2,-0.4 -0.4,-0.7 -0.7,-1c-0.1,-0.2 -0.2,-0.3 -0.4,-0.5l0,-0.2c-0.7,-0.9 -1.2,-1.9 -1.6,-2.9c-0.1,-0.3 -0.1,-0.7 0.1,-1c0,-0.1 0.1,-0.1 0.1,-0.1l0,0l-0.3,-0.8c5.1,-3.1 9,-7.9 10.8,-13.6l0.8,0.1l0,0c0.1,0 0.1,-0.1 0.1,-0.1c0.2,-0.2 0.5,-0.3 0.8,-0.3l0.1,0c1.1,0.2 2.2,0.5 3.2,0.9l0.1,0c0.2,0.1 0.4,0.2 0.6,0.2c0.4,0.2 0.7,0.4 1.1,0.5c0.1,0 0.2,0.1 0.4,0.1c0.1,0 0.1,0 0.2,0.1l0,0c0.2,0.1 0.3,0.1 0.5,0.1c0.9,0 1.7,-0.6 2,-1.4c-0.1,-1.1 -0.9,-1.9 -1.8,-2.1zm-28.9,-3.1l-2.7,1.3l-2.7,-1.3l-0.7,-2.9l1.9,-2.4l3,0l1.9,2.4l-0.7,2.9zm16.3,-6.5c0.5,2.1 0.6,4.2 0.4,6.3l-9.5,-2.7l0,0c-0.9,-0.2 -1.4,-1.1 -1.2,-2c0.1,-0.3 0.2,-0.5 0.4,-0.7l7.5,-6.8c1.1,1.8 1.9,3.8 2.4,5.9zm-5.4,-9.6l-8.2,5.8c-0.7,0.4 -1.7,0.3 -2.2,-0.4c-0.2,-0.2 -0.3,-0.4 -0.3,-0.7l-0.6,-10.1c4.4,0.5 8.3,2.4 11.3,5.4l0,0zm-18.1,-5.1l2,-0.4l-0.5,10l0,0c0,0.9 -0.8,1.6 -1.7,1.6c-0.3,0 -0.5,-0.1 -0.8,-0.2l-8.3,-5.9c2.6,-2.5 5.8,-4.3 9.3,-5.1zm-12.2,8.8l7.4,6.6l0,0c0.7,0.6 0.8,1.6 0.2,2.3c-0.2,0.3 -0.4,0.4 -0.8,0.5l-9.7,2.8c-0.3,-4.2 0.7,-8.5 2.9,-12.2zm-1.7,16.9l9.9,-1.7c0.8,0 1.6,0.5 1.7,1.3c0.1,0.3 0.1,0.7 -0.1,1l0,0l-3.8,9.2c-3.5,-2.3 -6.3,-5.8 -7.7,-9.8zm22.7,12.4c-1.4,0.3 -2.8,0.5 -4.3,0.5c-2.1,0 -4.3,-0.4 -6.3,-1l4.9,-8.9c0.5,-0.6 1.3,-0.8 2,-0.4c0.3,0.2 0.5,0.4 0.8,0.7l0,0l4.8,8.7c-0.6,0.1 -1.2,0.2 -1.9,0.4zm12.2,-8.7c-1.5,2.4 -3.6,4.5 -6,6l-3.9,-9.4c-0.2,-0.8 0.2,-1.6 0.9,-1.9c0.3,-0.1 0.6,-0.2 0.9,-0.2l10,1.7c-0.5,1.4 -1.1,2.7 -1.9,3.8z" class="st2"/>
    <g id="layer1">
     <g id="text4373">
      <path d="m126.1,47.4c1.1,-1.2 2.1,-2.4 3.3,-3.6c1.1,-1.3 2.2,-2.5 3.3,-3.7c1.1,-1.3 2.1,-2.4 3,-3.5s1.8,-2.1 2.5,-2.9l12.8,0c-2.6,2.9 -5.1,5.8 -7.5,8.5c-2.5,2.7 -5.1,5.5 -8,8.3c1.6,1.5 3.1,3 4.5,4.7c1.5,1.8 3,3.6 4.5,5.6c1.4,1.9 2.8,3.9 4,5.8c1.2,1.9 2.2,3.7 3,5.3l-12.4,0c-0.8,-1.3 -1.7,-2.6 -2.7,-4.1s-2.1,-3 -3.1,-4.6c-1.1,-1.5 -2.3,-3 -3.6,-4.4c-1.1,-1.3 -2.3,-2.5 -3.6,-3.5l0,16.7l-10.8,0l0,-54.8l10.8,-1.7l0,31.9" class="st2" id="path2985"/>
      <path d="m189.1,70.4c-2.3,0.6 -4.7,1.1 -7.1,1.4c-3,0.5 -6.1,0.7 -9.1,0.7c-2.8,0.1 -5.5,-0.4 -8.1,-1.3c-2,-0.8 -3.7,-2 -5.1,-3.6c-1.3,-1.7 -2.2,-3.6 -2.7,-5.7c-0.6,-2.3 -0.8,-4.8 -0.8,-7.2l0,-21.1l10.8,0l0,19.9c0,3.5 0.5,6 1.4,7.5s2.6,2.3 5.1,2.3c0.8,0 1.6,0 2.5,-0.1s1.6,-0.1 2.3,-0.3l0,-29.3l10.8,0l0,36.8" class="st2" id="path2987"/>
      <path d="m223.7,52.4c0,-7 -2.6,-10.4 -7.7,-10.4c-1.1,0 -2.2,0.1 -3.3,0.4c-0.9,0.2 -1.8,0.6 -2.6,1.1l0,19.6c0.5,0.1 1.2,0.2 2,0.3c0.8,0.1 1.7,0.1 2.7,0.1c2.6,0.2 5.1,-0.9 6.7,-3c1.5,-2.4 2.3,-5.2 2.2,-8.1m11,0.4c0,2.8 -0.4,5.6 -1.4,8.3c-0.8,2.4 -2.1,4.5 -3.8,6.3c-1.8,1.8 -3.9,3.2 -6.2,4.1c-2.7,1 -5.5,1.4 -8.4,1.4c-1.3,0 -2.7,-0.1 -4.1,-0.2c-1.4,-0.1 -2.8,-0.3 -4.2,-0.4c-1.3,-0.2 -2.6,-0.4 -3.9,-0.7c-1.3,-0.2 -2.4,-0.5 -3.3,-0.9l0,-53.5l10.8,-1.7l0,19c1.2,-0.5 2.5,-0.9 3.8,-1.2c1.4,-0.3 2.8,-0.4 4.2,-0.4c2.5,0 4.9,0.4 7.2,1.5c2,0.9 3.8,2.3 5.2,4c1.5,1.9 2.6,4 3.2,6.3c0.6,2.5 0.9,5.3 0.9,8.1" class="st2" id="path2989"/>
      <path d="m241.2,53c-0.1,-3 0.5,-6 1.5,-8.8c0.9,-2.4 2.3,-4.5 4.1,-6.4c1.7,-1.7 3.6,-3 5.8,-3.8c2.2,-0.9 4.5,-1.3 6.8,-1.3c5.4,0 9.7,1.7 12.8,5c3.1,3.3 4.7,8.2 4.7,14.5c0,0.6 0,1.3 -0.1,2.1s-0.1,1.4 -0.1,2l-24.5,0c0.2,2.1 1.3,4.1 3.1,5.3c2.2,1.4 4.8,2.1 7.4,2c1.9,0 3.9,-0.2 5.8,-0.5c1.6,-0.3 3.2,-0.8 4.7,-1.4l1.5,8.8c-0.7,0.4 -1.5,0.6 -2.3,0.9c-1.1,0.3 -2.2,0.6 -3.3,0.7c-1.2,0.2 -2.4,0.4 -3.8,0.6c-1.3,0.1 -2.7,0.2 -4.1,0.2c-3.1,0.1 -6.1,-0.4 -9,-1.5c-2.4,-0.9 -4.5,-2.3 -6.3,-4.1c-1.7,-1.8 -2.9,-4 -3.7,-6.3c-0.6,-2.7 -1,-5.3 -1,-8m25.4,-4.1c0,-0.9 -0.2,-1.8 -0.5,-2.7c-0.2,-0.9 -0.7,-1.6 -1.2,-2.3c-0.6,-0.7 -1.3,-1.3 -2.1,-1.7c-1,-0.5 -2,-0.7 -3.1,-0.7c-1.1,0 -2.1,0.2 -3.1,0.7c-0.8,0.4 -1.6,0.9 -2.2,1.6c-0.6,0.7 -1.1,1.5 -1.4,2.4c-0.3,0.9 -0.5,1.8 -0.6,2.7l14.2,0" class="st2" id="path2991"/>
      <path d="m308.3,43.2c-1,-0.2 -2.1,-0.5 -3.4,-0.7c-1.4,-0.3 -2.8,-0.4 -4.2,-0.4c-0.8,0 -1.6,0.1 -2.5,0.2c-0.7,0.1 -1.4,0.2 -2.1,0.4l0,29.1l-10.8,0l0,-36.2c2.2,-0.8 4.5,-1.4 6.8,-1.9c2.9,-0.7 5.9,-1 8.8,-0.9c0.7,0 1.4,0.1 2.1,0.1c0.8,0 1.6,0.1 2.5,0.3c0.8,0.1 1.6,0.2 2.5,0.4c0.7,0.1 1.4,0.3 2.1,0.6l-1.8,9" class="st2" id="path2993"/>
      <path d="m315.9,34.9c2.3,-0.6 4.7,-1.1 7.1,-1.5c3,-0.5 6.1,-0.7 9.1,-0.7c2.7,-0.1 5.4,0.4 8,1.3c2,0.7 3.8,1.9 5.1,3.5c1.3,1.6 2.2,3.5 2.7,5.5c0.6,2.3 0.8,4.7 0.8,7.1l0,21.5l-10.7,0l0,-20.1c0,-3.5 -0.5,-5.9 -1.4,-7.4c-0.9,-1.4 -2.6,-2.2 -5.1,-2.2c-0.8,0 -1.6,0 -2.5,0.1c-0.9,0 -1.6,0.1 -2.3,0.2l0,29.4l-10.8,0l0,-36.7" class="st2" id="path2995"/>
      <path d="m356.9,53c-0.1,-3 0.5,-6 1.5,-8.8c0.9,-2.4 2.3,-4.5 4.1,-6.4c1.7,-1.7 3.6,-3 5.8,-3.8c2.2,-0.9 4.5,-1.3 6.8,-1.3c5.4,0 9.7,1.7 12.8,5c3.1,3.3 4.7,8.2 4.7,14.6c0,0.6 0,1.3 -0.1,2.1s-0.1,1.4 -0.1,2l-24.5,0c0.2,2.1 1.3,4.1 3.1,5.3c2.2,1.4 4.8,2.1 7.4,2c1.9,0 3.9,-0.2 5.8,-0.5c1.6,-0.3 3.2,-0.8 4.8,-1.5l1.5,8.8c-0.7,0.4 -1.5,0.6 -2.3,0.9c-1.1,0.3 -2.2,0.6 -3.3,0.7c-1.2,0.2 -2.4,0.4 -3.8,0.6c-1.3,0.1 -2.7,0.2 -4.1,0.2c-3.1,0.1 -6.1,-0.4 -9,-1.5c-2.4,-0.9 -4.5,-2.3 -6.3,-4.1c-1.7,-1.8 -2.9,-4 -3.7,-6.3c-0.8,-2.7 -1.2,-5.4 -1.1,-8m25.3,-4.1c0,-0.9 -0.2,-1.8 -0.5,-2.7c-0.2,-0.9 -0.7,-1.6 -1.2,-2.3c-0.6,-0.7 -1.3,-1.3 -2.1,-1.7c-1,-0.5 -2,-0.7 -3.1,-0.7c-1.1,0 -2.1,0.2 -3.1,0.7c-0.8,0.4 -1.5,0.9 -2.1,1.6c-0.6,0.7 -1.1,1.5 -1.4,2.4c-0.3,0.9 -0.5,1.8 -0.6,2.7l14.1,0" class="st2" id="path2997"/>
      <path d="m400.6,24.1l10.8,-1.7l0,11.2l13,0l0,9l-13,0l0,13.4c-0.1,1.9 0.3,3.8 1.2,5.4c0.8,1.3 2.4,2 4.9,2c1.2,0 2.4,-0.1 3.5,-0.3c1.2,-0.2 2.3,-0.5 3.4,-0.9l1.5,8.4c-1.4,0.6 -2.9,1 -4.4,1.4c-1.9,0.4 -3.9,0.6 -5.9,0.6c-2.5,0.1 -5,-0.3 -7.3,-1.2c-1.8,-0.7 -3.4,-1.9 -4.6,-3.3c-1.2,-1.5 -2,-3.3 -2.5,-5.2c-0.5,-2.2 -0.7,-4.5 -0.6,-6.7l0,-32.1" class="st2" id="path2999"/>
      <path d="m429.9,53c-0.1,-3 0.5,-6 1.5,-8.8c0.9,-2.4 2.3,-4.5 4.1,-6.4c1.7,-1.7 3.6,-3 5.8,-3.8c2.2,-0.9 4.5,-1.3 6.8,-1.3c5.4,0 9.7,1.7 12.8,5s4.7,8.2 4.7,14.6c0,0.6 0,1.3 -0.1,2.1c0,0.8 -0.1,1.4 -0.1,2l-24.4,0c0.2,2.1 1.3,4.1 3.1,5.3c2.2,1.4 4.8,2.1 7.4,2c1.9,0 3.9,-0.2 5.8,-0.5c1.6,-0.3 3.2,-0.8 4.7,-1.5l1.5,8.8c-0.7,0.4 -1.5,0.6 -2.3,0.9c-1.1,0.3 -2.2,0.6 -3.3,0.7c-1.2,0.2 -2.4,0.4 -3.8,0.6c-1.3,0.1 -2.7,0.2 -4.1,0.2c-3.1,0.1 -6.1,-0.4 -9,-1.5c-2.4,-0.9 -4.5,-2.3 -6.3,-4.1c-1.7,-1.8 -2.9,-4 -3.7,-6.3c-0.7,-2.7 -1.1,-5.4 -1.1,-8m25.3,-4.1c0,-0.9 -0.2,-1.8 -0.5,-2.7c-0.2,-0.9 -0.7,-1.6 -1.2,-2.3c-0.6,-0.7 -1.3,-1.3 -2.1,-1.7c-1,-0.5 -2,-0.7 -3.1,-0.7c-1.1,0 -2.1,0.2 -3.1,0.7c-0.8,0.4 -1.6,0.9 -2.2,1.6c-0.6,0.7 -1.1,1.5 -1.4,2.4c-0.3,0.9 -0.5,1.8 -0.6,2.7l14.2,0" class="st2" id="path3001"/>
      <path d="m485,64c1.4,0.1 2.9,-0.1 4.2,-0.6c0.8,-0.4 1.3,-1.3 1.2,-2.2c-0.1,-1 -0.7,-1.9 -1.6,-2.2c-1.5,-0.9 -3.2,-1.7 -4.9,-2.2c-1.7,-0.6 -3.2,-1.3 -4.6,-2c-1.3,-0.6 -2.4,-1.4 -3.5,-2.4c-1,-1 -1.7,-2.1 -2.2,-3.4c-0.6,-1.5 -0.8,-3.1 -0.8,-4.7c-0.1,-3.3 1.4,-6.5 4,-8.5c2.7,-2.1 6.3,-3.1 10.9,-3.1c2.2,0 4.5,0.2 6.7,0.7c1.7,0.3 3.4,0.7 5.1,1.3l-1.9,8.5c-1.4,-0.5 -2.7,-0.8 -4.1,-1.2c-1.6,-0.4 -3.3,-0.5 -4.9,-0.5c-3.4,0 -5.1,0.9 -5.1,2.8c0,0.4 0.1,0.8 0.2,1.2c0.2,0.4 0.5,0.7 0.9,1c0.4,0.3 1,0.6 1.7,1c0.7,0.4 1.7,0.8 2.9,1.2c2,0.7 4,1.6 5.8,2.6c1.4,0.7 2.6,1.6 3.6,2.8c0.9,0.9 1.5,2 1.9,3.3c0.4,1.4 0.6,2.8 0.6,4.2c0.2,3.4 -1.4,6.7 -4.3,8.6c-2.8,1.9 -6.8,2.9 -12,2.9c-2.9,0.1 -5.7,-0.2 -8.5,-0.9c-1.6,-0.4 -3.1,-0.9 -4.6,-1.4l1.8,-8.8c1.8,0.7 3.7,1.3 5.6,1.7c2,0.1 3.9,0.3 5.9,0.3" class="st2" id="path3003"/>
     </g>
    </g>
   </g>
  </g>
 </g>
</svg>